<?xml version="1.0" encoding="UTF-8" standalone="no"?>
<!DOCTYPE svg PUBLIC "-//W3C//DTD SVG 1.1//EN" "http://www.w3.org/Graphics/SVG/1.1/DTD/svg11.dtd">
<svg width="100%" height="100%" viewBox="0 0 137 135" version="1.1" xmlns="http://www.w3.org/2000/svg" xmlns:xlink="http://www.w3.org/1999/xlink" xml:space="preserve" xmlns:serif="http://www.serif.com/" style="fill-rule:evenodd;clip-rule:evenodd;stroke-linejoin:round;stroke-miterlimit:2;">
    <g transform="matrix(1,0,0,1,-32.351,-33.259)">
        <path d="M168.282,88.417C166.795,80.649 161.076,74.683 153.895,72.39C155.868,65.277 153.891,57.341 148.044,51.868C141.762,45.988 132.778,44.601 125.247,47.618C122.689,40.038 115.777,34.235 107.143,33.369C99.104,32.563 91.678,36.245 87.453,42.34C81.012,38.471 72.676,38.079 65.695,42.019C58.714,45.959 54.908,53.202 55.136,60.578C47.613,61.113 40.638,65.558 37.349,72.757C34.058,79.955 35.31,88.027 39.903,93.902C34.14,98.637 31.157,106.245 32.799,113.984C34.44,121.724 40.278,127.579 47.506,129.734C45.675,136.884 47.81,144.78 53.765,150.142C59.72,155.504 67.939,156.931 75.071,154.553C77.866,161.418 84.312,166.626 92.333,167.585C100.352,168.544 107.853,165.005 112.201,158.993C118.565,162.984 126.89,163.536 133.949,159.733C141.007,155.928 144.958,148.759 144.879,141.38C152.412,140.99 159.475,136.679 162.909,129.546C166.343,122.413 165.253,114.32 160.778,108.359C166.634,103.734 169.769,96.186 168.282,88.417" style="fill:white;"/>
    </g>
</svg>
