<?xml version="1.0" encoding="UTF-8" standalone="no"?>
<!DOCTYPE svg PUBLIC "-//W3C//DTD SVG 1.1//EN" "http://www.w3.org/Graphics/SVG/1.1/DTD/svg11.dtd">
<svg width="100%" height="100%" viewBox="0 0 605 459" version="1.1" xmlns="http://www.w3.org/2000/svg" xmlns:xlink="http://www.w3.org/1999/xlink" xml:space="preserve" xmlns:serif="http://www.serif.com/" style="fill-rule:evenodd;clip-rule:evenodd;stroke-linejoin:round;stroke-miterlimit:2;">
    <g transform="matrix(1,0,0,1,-47.9695,-71.1473)">
        <path d="M271.63,74.48C281.85,71.82 292.46,70.86 303.01,71.22C310.13,71.19 317.95,71.66 323.86,76.11C330.41,81.66 331.74,90.97 331.43,99.08C331.23,105.14 328.08,110.65 323.69,114.68C326.83,116.63 330.02,118.84 331.89,122.13C333.45,124.94 334.05,128.16 334.44,131.31C333.85,135.34 332.7,139.35 330.28,142.69C327.7,144.71 325.14,146.76 322.5,148.69C324.47,149.48 326.43,150.29 328.39,151.1C331.86,157.98 332.9,165.82 331.82,173.42C329.69,178.37 326.66,183.09 322.28,186.33C315.32,191.61 306.85,194.25 298.52,196.46C290.75,198.68 282.51,199.77 274.48,198.4C268.87,197.08 262.99,193.64 261.06,187.9C259.74,184.27 257.86,180.89 255.97,177.54C251.65,167.89 248.33,157.75 245.78,147.5C246.65,142.51 247.26,137.23 245.54,132.34C243.34,126.02 239.48,120.45 237.05,114.22C236.74,105.65 234.79,95.88 240.51,88.55C247.9,79.03 260.54,76.83 271.63,74.48M263.1,86.08C257.41,87.61 251.35,89.8 247.77,94.77C245.61,97.72 245.96,101.58 245.98,105.03C246.53,116.15 249.32,126.99 252.35,137.66C256.38,151 260.41,164.38 265.78,177.27C267.52,181.4 269.26,186.28 273.73,188.17C280.16,191.14 287.36,189.32 293.93,187.87C301.62,185.87 309.57,183.79 316.14,179.11C321.67,175.19 324.46,168.05 323.66,161.42C323.2,158.37 319.76,157.59 317.32,156.69C306.02,154.27 294.52,157.81 283.15,156.65C293.3,149.94 305.51,147.62 316.34,142.32C321.6,139.9 325.02,133.84 324.04,128.1C323.67,125.48 321.13,124.04 318.93,123.1C313.51,121.14 307.63,122.17 302,122.04C293.78,121.88 285.54,122.41 277.33,121.68C281.22,119.08 285.95,118.51 290.37,117.33C297.16,115.75 303.75,113.44 310.38,111.32C315.64,109.55 320.91,105.6 321.86,99.81C322.37,94.95 321.94,89.76 319.55,85.41C317.21,81.54 312.11,81.16 308.05,81.01C301.12,81.12 294.17,80.68 287.27,81.34C279.17,82.66 271.06,84.06 263.1,86.08Z" style="fill:rgb(128,108,55);fill-rule:nonzero;"/>
    </g>
    <g transform="matrix(1,0,0,1,-47.9695,-71.1473)">
        <path d="M357.71,85.74C362.8,79.37 370.36,75.13 378.3,73.48C385.63,72.72 393.49,72.33 400.3,75.66C405.88,78.43 410.59,82.76 414.42,87.62C420.22,96.03 422.14,106.37 423.42,116.32C424.81,130.91 425.38,145.64 424.15,160.26C424,161.42 423.86,162.59 423.72,163.75C422.17,173.3 420.18,183.87 412.61,190.63C407.65,195.25 400.23,195.67 393.97,193.97C384.92,191.37 375.74,185.85 372.63,176.43C367.88,182.64 359.93,185.97 352.17,184.61C344.56,183.32 335.84,180.49 331.82,173.42C332.9,165.82 331.86,157.98 328.39,151.1C328.91,148.27 329.49,145.45 330.28,142.69C332.7,139.35 333.85,135.34 334.44,131.31C335.62,125.81 338.37,120.83 340.58,115.7C345.58,105.35 350.36,94.68 357.71,85.74M365.3,91.3C360.42,97.07 356.93,103.84 353.55,110.55C347.25,123.26 341.13,136.26 338.11,150.2C337.04,155.57 335.95,161.45 338.3,166.65C340.22,170.8 344.62,172.98 348.78,174.28C353.82,175.78 360.05,176.06 364.07,172.07C370.25,166.19 373.04,157.75 378.7,151.42C379.34,157.89 378.28,164.54 380.04,170.88C381.44,176.45 386.2,180.44 391.15,182.9C395.25,184.87 400.14,186.27 404.6,184.68C408.16,182.82 410.1,179.01 411.46,175.4C415.91,162.76 415.23,149.17 415.17,135.99C415.18,124.58 414.25,113.04 411,102.07C407.96,91.52 398.33,82.2 386.98,81.99C378.93,81.97 370.57,85.04 365.3,91.3Z" style="fill:rgb(146,52,85);fill-rule:nonzero;"/>
    </g>
    <g transform="matrix(1,0,0,1,-47.9695,-71.1473)">
        <path d="M263.1,86.08C271.06,84.06 279.17,82.66 287.27,81.34C294.17,80.68 301.12,81.12 308.05,81.01C312.11,81.16 317.21,81.54 319.55,85.41C321.94,89.76 322.37,94.95 321.86,99.81C320.91,105.6 315.64,109.55 310.38,111.32C303.75,113.44 297.16,115.75 290.37,117.33C285.95,118.51 281.22,119.08 277.33,121.68C285.54,122.41 293.78,121.88 302,122.04C307.63,122.17 313.51,121.14 318.93,123.1C321.13,124.04 323.67,125.48 324.04,128.1C325.02,133.84 321.6,139.9 316.34,142.32C305.51,147.62 293.3,149.94 283.15,156.65C294.52,157.81 306.02,154.27 317.32,156.69C319.76,157.59 323.2,158.37 323.66,161.42C324.46,168.05 321.67,175.19 316.14,179.11C309.57,183.79 301.62,185.87 293.93,187.87C287.36,189.32 280.16,191.14 273.73,188.17C269.26,186.28 267.52,181.4 265.78,177.27C260.41,164.38 256.38,151 252.35,137.66C249.32,126.99 246.53,116.15 245.98,105.03C245.96,101.58 245.61,97.72 247.77,94.77C251.35,89.8 257.41,87.61 263.1,86.08Z" style="fill:rgb(233,212,153);fill-rule:nonzero;"/>
    </g>
    <g transform="matrix(1,0,0,1,-47.9695,-71.1473)">
        <path d="M365.3,91.3C370.57,85.04 378.93,81.97 386.98,81.99C398.33,82.2 407.96,91.52 411,102.07C414.25,113.04 415.18,124.58 415.17,135.99C415.23,149.17 415.91,162.76 411.46,175.4C410.1,179.01 408.16,182.82 404.6,184.68C400.14,186.27 395.25,184.87 391.15,182.9C386.2,180.44 381.44,176.45 380.04,170.88C378.28,164.54 379.34,157.89 378.7,151.42C373.04,157.75 370.25,166.19 364.07,172.07C360.05,176.06 353.82,175.78 348.78,174.28C344.62,172.98 340.22,170.8 338.3,166.65C335.95,161.45 337.04,155.57 338.11,150.2C341.13,136.26 347.25,123.26 353.55,110.55C356.93,103.84 360.42,97.07 365.3,91.3M376.89,119.9C374.41,123.09 373.05,127.02 371.86,130.84C371.64,132.14 370.74,133.89 372.27,134.74C377.01,136.75 382.24,137.26 387.25,138.3C389.86,132.98 388.24,126.78 386.5,121.45C385.2,117.44 379.44,116.75 376.89,119.9Z" style="fill:rgb(233,153,181);fill-rule:nonzero;"/>
    </g>
    <g transform="matrix(1,0,0,1,-47.9695,-71.1473)">
        <path d="M461.62,90.52C471.76,85.43 484.12,86.81 493.87,92.12C501.54,96.52 506.75,104.42 509.12,112.81C510.9,119.16 510.32,125.81 509.52,132.26C518.76,127.22 530.25,126.69 539.83,131.14C549.27,135.23 555.23,145.15 556.5,155.08C557.04,167.28 553.34,179.54 546.86,189.82C538.29,201.99 528.62,214.02 515.5,221.51C510.24,224.67 503.81,225.86 497.83,224.36C491.57,222.55 486.64,217.03 485.52,210.63C484.4,203.68 485.52,196.64 487.01,189.84C483.22,190.82 479.01,191.47 475.37,189.65C471.97,188.23 469.74,185.15 467.91,182.1C462.26,190.11 454.18,197.35 444.04,198.37C437.55,199.34 430.85,196.01 427.64,190.31C423.16,182.3 422.83,172.69 423.72,163.75C423.86,162.59 424,161.42 424.15,160.26C426.27,145.66 431.17,131.58 437.17,118.14C442.28,106.82 449.86,95.65 461.62,90.52M463.28,100.28C453.47,105.63 448.33,116.21 444.02,126.01C439.14,137.95 434.89,150.32 433.21,163.15C432.84,170.11 432.24,177.45 435.02,184.03C436.02,186.55 438.19,188.99 441.11,189.01C447.12,189.32 452.42,185.55 456.32,181.31C462.83,174.58 465.9,165.54 470.66,157.64C471.7,155.57 473.84,154.54 475.8,153.5C475.12,161.37 472.45,169.47 474.84,177.29C476.53,182.07 482.52,182.14 486.7,181.47C493.36,179.85 497.7,174.15 502.28,169.51C499.64,181.32 494.77,192.73 494.38,204.97C494.38,208.7 495.45,213.18 499.25,214.77C503.39,216.96 508.08,214.85 511.79,212.75C522.13,206.39 530.27,197.03 537.04,187.06C541.52,180.39 545.78,173.28 547.3,165.28C548.71,159.3 547.06,153.01 544.25,147.69C541.28,142.09 535.35,138.38 529.06,137.9C518.07,136.82 507.41,141.64 499.19,148.66C499.61,139.12 501.3,129.62 500.87,120.04C500.12,112.35 496.07,104.8 489.52,100.56C481.63,95.97 471.19,95.44 463.28,100.28Z" style="fill:rgb(128,108,55);fill-rule:nonzero;"/>
    </g>
    <g transform="matrix(1,0,0,1,-47.9695,-71.1473)">
        <path d="M463.28,100.28C471.19,95.44 481.63,95.97 489.52,100.56C496.07,104.8 500.12,112.35 500.87,120.04C501.3,129.62 499.61,139.12 499.19,148.66C507.41,141.64 518.07,136.82 529.06,137.9C535.35,138.38 541.28,142.09 544.25,147.69C547.06,153.01 548.71,159.3 547.3,165.28C545.78,173.28 541.52,180.39 537.04,187.06C530.27,197.03 522.13,206.39 511.79,212.75C508.08,214.85 503.39,216.96 499.25,214.77C495.45,213.18 494.38,208.7 494.38,204.97C494.77,192.73 499.64,181.32 502.28,169.51C497.7,174.15 493.36,179.85 486.7,181.47C482.52,182.14 476.53,182.07 474.84,177.29C472.45,169.47 475.12,161.37 475.8,153.5C473.84,154.54 471.7,155.57 470.66,157.64C465.9,165.54 462.83,174.58 456.32,181.31C452.42,185.55 447.12,189.32 441.11,189.01C438.19,188.99 436.02,186.55 435.02,184.03C432.24,177.45 432.84,170.11 433.21,163.15C434.89,150.32 439.14,137.95 444.02,126.01C448.33,116.21 453.47,105.63 463.28,100.28Z" style="fill:rgb(233,212,153);fill-rule:nonzero;"/>
    </g>
    <g transform="matrix(1,0,0,1,-47.9695,-71.1473)">
        <path d="M182.94,100.82C194.61,97.92 207.26,97.24 218.73,101.39C225.74,104.06 232.3,108.35 237.05,114.22C239.48,120.45 243.34,126.02 245.54,132.34C247.26,137.23 246.65,142.51 245.78,147.5C242.5,153.54 237.71,158.51 232.75,163.19C241.18,166.79 248.71,172.01 255.97,177.54C257.86,180.89 259.74,184.27 261.06,187.9C262.33,190.91 261.25,194.24 260.08,197.1C256.2,205.36 248.29,212.03 239.05,213.08C232.36,214.1 225.86,211.48 220,208.52C221.34,213.71 220.88,219.85 216.44,223.46C209.47,228.84 201.03,233.26 191.99,232.91C185.32,233.16 178.68,229.55 175.19,223.89C170.39,216.11 166.18,207.74 159.8,201.1C153.81,194.16 149.69,185.82 144.11,178.55C141.98,170.86 139.61,162.23 132.39,157.74C130.87,145.97 137.66,135.43 144.59,126.6C154.29,114.32 167.54,104.46 182.94,100.82M185.02,109.99C170.68,113.52 158.52,123.18 150,135.02C145.82,140.89 141.33,147.46 141.79,155C141.81,159.01 144.54,162.18 146.66,165.32C154.32,176.41 161.74,187.66 168.91,199.07C173.11,205.76 177.57,212.31 182.51,218.48C184.97,221.65 188.77,223.9 192.86,223.67C198.58,223.34 203.97,220.88 208.62,217.65C212.2,215.49 211.64,210.59 211.05,207.05C208.84,198.55 203.31,191.45 199.88,183.46C210.95,188.83 219.03,199.3 231.04,203.04C239.31,206.27 248.76,200.45 251.76,192.57C252.72,189.96 251.64,187.14 249.74,185.27C244.05,179.3 236.39,175.9 229.64,171.35C226.8,169.43 223.77,167.79 220.96,165.82C219.47,165.03 219.66,162.9 220.8,161.89C225.49,156.24 231.82,152.02 235.77,145.74C238.83,140.99 238.77,134.75 236.32,129.76C233.02,122.83 227.62,116.9 221.09,112.89C210.26,106.46 196.84,106.96 185.02,109.99Z" style="fill:rgb(146,52,85);fill-rule:nonzero;"/>
    </g>
    <g transform="matrix(1,0,0,1,-47.9695,-71.1473)">
        <path d="M185.02,109.99C196.84,106.96 210.26,106.46 221.09,112.89C227.62,116.9 233.02,122.83 236.32,129.76C238.77,134.75 238.83,140.99 235.77,145.74C231.82,152.02 225.49,156.24 220.8,161.89C219.66,162.9 219.47,165.03 220.96,165.82C223.77,167.79 226.8,169.43 229.64,171.35C236.39,175.9 244.05,179.3 249.74,185.27C251.64,187.14 252.72,189.96 251.76,192.57C248.76,200.45 239.31,206.27 231.04,203.04C219.03,199.3 210.95,188.83 199.88,183.46C203.31,191.45 208.84,198.55 211.05,207.05C211.64,210.59 212.2,215.49 208.62,217.65C203.97,220.88 198.58,223.34 192.86,223.67C188.77,223.9 184.97,221.65 182.51,218.48C177.57,212.31 173.11,205.76 168.91,199.07C161.74,187.66 154.32,176.41 146.66,165.32C144.54,162.18 141.81,159.01 141.79,155C141.33,147.46 145.82,140.89 150,135.02C158.52,123.18 170.68,113.52 185.02,109.99M185.38,148.44C180.62,149.86 175.89,151.9 172.08,155.16C169.94,156.45 171.48,159.08 172.23,160.77C174.57,165.02 176.87,169.36 179.95,173.13C180.96,174.64 182.75,173.41 184.04,173.05C188.63,170.98 193.27,168.45 196.51,164.5C199.72,160.58 200.23,154.19 196.69,150.32C193.77,147.35 189.13,147.6 185.38,148.44Z" style="fill:rgb(233,153,181);fill-rule:nonzero;"/>
    </g>
    <g transform="matrix(1,0,0,1,-47.9695,-71.1473)">
        <path d="M376.89,119.9C379.44,116.75 385.2,117.44 386.5,121.45C388.24,126.78 389.86,132.98 387.25,138.3C382.24,137.26 377.01,136.75 372.27,134.74C370.74,133.89 371.64,132.14 371.86,130.84C373.05,127.02 374.41,123.09 376.89,119.9Z" style="fill:rgb(146,52,85);fill-rule:nonzero;"/>
    </g>
    <g transform="matrix(1,0,0,1,-47.9695,-71.1473)">
        <path d="M556.5,155.08C562.84,148.38 571.51,142.95 581.01,143.14C587.22,143.04 592.97,146.52 596.91,151.13C602.66,158.03 606.37,166.92 605.96,176C606.16,181.7 604.53,187.21 602.6,192.51C609.7,187.7 618.3,184.38 627,185.79C636.05,187.22 645.4,191.76 649.83,200.17C653.18,206.07 653.33,213.14 652.55,219.71C651.29,227.56 646,234.29 639.29,238.33C627.43,245.72 613.21,247.07 599.81,249.68C597.06,250.47 593.28,249.75 591.69,252.67C583.76,263.82 577.2,276.8 565.14,284.16C557.2,289.36 546.6,289.03 538.34,284.77C529.72,280.55 523.68,272.25 520.72,263.29C518.47,256.7 518.7,249.23 521.83,242.97C525.96,234.22 533.93,228.24 541.08,222.07C542.85,220.36 546.15,219.46 546.27,216.62C546.9,207.71 545.64,198.67 546.86,189.82C553.34,179.54 557.04,167.28 556.5,155.08M565.97,158.95C559.25,164.98 556.45,174.2 555.99,182.98C555.8,193.33 556,203.68 555.97,214.03C555.88,218.42 555.07,223.44 551.31,226.26C547.33,229.27 543.25,232.17 539.71,235.71C534.99,240.21 529.59,245.14 528.89,252.03C527.8,263.97 536.69,276.27 548.62,278.48C554.07,279.9 559.56,277.08 563.68,273.7C573.47,265.46 578.78,253.48 586.71,243.68C588.36,241.36 591.37,241.21 593.95,240.95C601.1,240.18 608.14,238.59 615.2,237.25C623.18,235.53 631.45,233.2 637.77,227.78C645,221.54 645.89,209.5 639.8,202.2C633.29,195.12 621.88,192.65 613.27,197.25C607.19,200.41 600.84,203.18 595.39,207.39C591.94,209.87 588.96,213.2 584.77,214.45C586.22,209.35 588.98,204.78 590.93,199.88C593.7,193.35 595.33,186.4 596.48,179.42C597.72,172.46 595.37,165.29 591.49,159.53C589.27,156.29 586.17,153.06 582.03,152.69C576.04,152.09 570.35,155.13 565.97,158.95Z" style="fill:rgb(146,52,85);fill-rule:nonzero;"/>
    </g>
    <g transform="matrix(1,0,0,1,-47.9695,-71.1473)">
        <path d="M185.38,148.44C189.13,147.6 193.77,147.35 196.69,150.32C200.23,154.19 199.72,160.58 196.51,164.5C193.27,168.45 188.63,170.98 184.04,173.05C182.75,173.41 180.96,174.64 179.95,173.13C176.87,169.36 174.57,165.02 172.23,160.77C171.48,159.08 169.94,156.45 172.08,155.16C175.89,151.9 180.62,149.86 185.38,148.44M179.88,161.01C180.87,161.79 181.9,162.51 182.96,163.18C185.9,161.77 188.38,159.58 190.29,156.96C186.61,157.7 183.12,159.12 179.88,161.01Z" style="fill:rgb(146,52,85);fill-rule:nonzero;"/>
    </g>
    <g transform="matrix(1,0,0,1,-47.9695,-71.1473)">
        <path d="M64.95,167.96C74.75,157.48 88.47,150.07 102.97,149.45C113.26,149.42 123.67,152.22 132.39,157.74C139.61,162.23 141.98,170.86 144.11,178.55C144.04,189.17 139.89,199.51 132.5,207.15C136.52,203.87 140.99,200.81 146.25,200.03C150.77,199.17 155.42,199.9 159.8,201.1C166.18,207.74 170.39,216.11 175.19,223.89C175.19,231.47 172.05,238.74 168.16,245.13C161.94,255.25 153.66,264.54 142.95,270.01C130.12,276.4 115.43,278.97 101.18,277.58C92.41,276.55 83.73,273.69 76.52,268.51C58.9,255.12 47.24,233.36 48.02,211C47.29,195.05 54.55,179.69 64.95,167.96M98.4,159.41C81.78,162.48 68.09,175.16 61.53,190.45C55.36,203.76 56.32,219.31 61.1,232.89C65.08,242.98 71.62,252.06 79.84,259.12C89.58,267.16 102.98,269.62 115.29,268.24C124.98,266.97 134.81,264.52 143.03,259.01C151.14,253.51 157.24,245.49 161.92,236.97C165.05,230.72 167.6,223.1 164.71,216.29C163.03,212.16 158.42,210.53 154.43,209.55C148.38,207.84 141.22,210.5 138.08,216.03C135.5,220.79 134.92,226.38 132.08,231.02C129.1,236.5 123.33,240.63 116.99,240.76C112.43,240.5 108.53,237.69 105.21,234.78C99.49,229.81 97.05,222.18 95.95,214.92C95.33,211.47 96.53,207.15 100.24,206.06C104.73,204.87 108.56,208.44 112.88,208.64C119.28,207.19 124.33,202.31 128.34,197.34C133.49,190.98 135.34,182.31 133.65,174.35C132.41,169.22 127.97,165.7 123.42,163.54C115.68,159.92 106.91,158 98.4,159.41M118.8,216.79C114.7,218.51 110.14,217.96 105.87,217.26C107.43,223.16 110.97,229.19 117.08,231.15C121.61,230.97 124.17,226.45 125.54,222.66C127.03,217.68 128.75,212.76 131.51,208.31C127.52,211.47 123.63,214.95 118.8,216.79Z" style="fill:rgb(128,108,55);fill-rule:nonzero;"/>
    </g>
    <g transform="matrix(1,0,0,1,-47.9695,-71.1473)">
        <path d="M565.97,158.95C570.35,155.13 576.04,152.09 582.03,152.69C586.17,153.06 589.27,156.29 591.49,159.53C595.37,165.29 597.72,172.46 596.48,179.42C595.33,186.4 593.7,193.35 590.93,199.88C588.98,204.78 586.22,209.35 584.77,214.45C588.96,213.2 591.94,209.87 595.39,207.39C600.84,203.18 607.19,200.41 613.27,197.25C621.88,192.65 633.29,195.12 639.8,202.2C645.89,209.5 645,221.54 637.77,227.78C631.45,233.2 623.18,235.53 615.2,237.25C608.14,238.59 601.1,240.18 593.95,240.95C591.37,241.21 588.36,241.36 586.71,243.68C578.78,253.48 573.47,265.46 563.68,273.7C559.56,277.08 554.07,279.9 548.62,278.48C536.69,276.27 527.8,263.97 528.89,252.03C529.59,245.14 534.99,240.21 539.71,235.71C543.25,232.17 547.33,229.27 551.31,226.26C555.07,223.44 555.88,218.42 555.97,214.03C556,203.68 555.8,193.33 555.99,182.98C556.45,174.2 559.25,164.98 565.97,158.95Z" style="fill:rgb(233,153,181);fill-rule:nonzero;"/>
    </g>
    <g transform="matrix(1,0,0,1,-47.9695,-71.1473)">
        <path d="M98.4,159.41C106.91,158 115.68,159.92 123.42,163.54C127.97,165.7 132.41,169.22 133.65,174.35C135.34,182.31 133.49,190.98 128.34,197.34C124.33,202.31 119.28,207.19 112.88,208.64C108.56,208.44 104.73,204.87 100.24,206.06C96.53,207.15 95.33,211.47 95.95,214.92C97.05,222.18 99.49,229.81 105.21,234.78C108.53,237.69 112.43,240.5 116.99,240.76C123.33,240.63 129.1,236.5 132.08,231.02C134.92,226.38 135.5,220.79 138.08,216.03C141.22,210.5 148.38,207.84 154.43,209.55C158.42,210.53 163.03,212.16 164.71,216.29C167.6,223.1 165.05,230.72 161.92,236.97C157.24,245.49 151.14,253.51 143.03,259.01C134.81,264.52 124.98,266.97 115.29,268.24C102.98,269.62 89.58,267.16 79.84,259.12C71.62,252.06 65.08,242.98 61.1,232.89C56.32,219.31 55.36,203.76 61.53,190.45C68.09,175.16 81.78,162.48 98.4,159.41Z" style="fill:rgb(233,212,153);fill-rule:nonzero;"/>
    </g>
    <g transform="matrix(1,0,0,1,-47.9695,-71.1473)">
        <path d="M261.91,217.87C263.33,210.54 264.72,202.94 268.93,196.61C273.4,202.76 276.7,209.67 281.23,215.78C284.84,220.48 290.69,224.14 296.72,223.76C306.03,219.96 316.05,218.35 326,217.32C345.63,216.48 365.68,216.47 384.67,222.18C386.78,222.83 388.79,223.94 391.02,224.18C395.9,223.78 400.72,221.74 404.06,218.09C409.05,212.55 413.65,206.68 417.75,200.44C425.68,207.06 429.35,217.84 427.87,227.97C427.39,231.69 425.89,235.15 424.61,238.64C431.81,233.3 439.15,227.98 447.47,224.49C451.65,222.77 456.03,220.56 460.69,221.33C463.66,221.76 465.88,223.96 467.91,225.99C465.43,228.2 463.11,230.59 461.01,233.16C458.58,236.01 455.66,238.38 452.85,240.84C440.75,251.61 430.29,264.29 422.32,278.41C420.21,282.02 421.5,286.35 421.84,290.24C422.28,293.08 423.15,295.82 424.18,298.5L424.39,299.07C423.6,299.12 422.02,299.24 421.22,299.3C423.94,302.41 427.27,304.92 429.92,308.1C437.76,317.65 444.14,329.3 443.95,341.99C444.76,356.83 437.7,371.08 427.54,381.54C413.66,395.72 394.96,404.32 375.81,408.72C360.87,412.45 345.36,412.36 330.09,411.64C308.69,409.67 287.34,402.93 269.89,390.15C256.87,380.41 245.98,366.41 243.92,349.88C241.25,333.14 249.15,316.47 260.85,304.86C262.37,302.89 265.43,301.63 265.88,299.15C265.7,296.14 265.3,293.15 265.28,290.15C265.3,285.89 265.9,281.3 263.5,277.51C254.25,261.58 242.25,247.24 228.15,235.38C225.92,233.38 223.51,231.57 221.08,229.82C223.67,225.94 228.02,222.59 232.96,223.7C244.23,226.42 254.16,232.79 263.45,239.5C261.62,232.47 260.55,225.09 261.91,217.87M409.46,224.43C406.17,227.79 401.59,229.29 397.84,232.02C399.64,237.87 403.99,242.47 409.07,245.69C414.33,240.17 418.88,233.52 420.07,225.83C420.74,221.54 419.21,217.37 417.85,213.38C414.99,217.01 412.7,221.11 409.46,224.43M270.12,216.25C268.7,227.08 269.99,238.9 276.86,247.79C282.06,243.5 286.94,238.4 289.25,231.93C287.15,230.16 284.63,228.99 282.3,227.57C277.41,224.75 274.64,219.54 270.12,216.25M306.19,229.18C302.81,230.52 298.81,231.61 296.9,235.01C294.88,238.6 293.27,242.45 290.64,245.67C287.61,249.92 283.44,253.16 280.16,257.2C276.96,261.1 275.43,266.11 275.04,271.08C273.43,282.45 273.75,294.04 275.13,305.41C268.94,308.05 264.04,312.89 260.55,318.57C254.13,327.65 250.32,339.19 252.72,350.3C255.21,364.78 265.45,376.64 277.22,384.8C294.66,396.67 315.75,402.37 336.67,403.42C344.07,404.48 351.48,403.25 358.87,402.82C377.62,400.71 396.32,394.87 411.76,383.78C422.2,375.99 431.55,365.49 434.42,352.45C436.38,343.04 435.43,332.82 430.59,324.4C426.43,316.86 420.99,309.54 413.03,305.74C413.01,304.29 413,302.84 413,301.4C413.58,292.61 412.68,283.83 412.09,275.07C411.49,268.86 411.14,262.41 408.42,256.69C406.48,252.34 401.6,250.77 398.43,247.55C394.78,244.34 392.62,239.93 390.17,235.84C388.26,232.6 384.65,231.14 381.44,229.58L381.81,228.95C378.59,228.65 375.37,228.26 372.19,227.66C350.46,223.37 327.64,223.35 306.19,229.18M424.12,250.05C421.86,251.94 419.26,253.54 417.5,255.95C418.18,259.61 419.24,263.21 419.56,266.94C426.5,254.6 436.78,244.75 446.43,234.59C438.01,238.17 431.29,244.55 424.12,250.05M242.58,236.57C244.99,239.71 247.83,242.48 250.54,245.37C256.56,251.73 261.82,258.76 266.61,266.09C267.56,262.62 268.76,259.23 270.24,255.96C261.47,248.93 252.97,241.11 242.58,236.57Z" style="fill:rgb(146,52,85);fill-rule:nonzero;"/>
    </g>
    <g transform="matrix(1,0,0,1,-47.9695,-71.1473)">
        <path d="M409.46,224.43C412.7,221.11 414.99,217.01 417.85,213.38C419.21,217.37 420.74,221.54 420.07,225.83C418.88,233.52 414.33,240.17 409.07,245.69C403.99,242.47 399.64,237.87 397.84,232.02C401.59,229.29 406.17,227.79 409.46,224.43Z" style="fill:rgb(165,108,108);fill-rule:nonzero;"/>
    </g>
    <g transform="matrix(1,0,0,1,-47.9695,-71.1473)">
        <path d="M270.12,216.25C274.64,219.54 277.41,224.75 282.3,227.57C284.63,228.99 287.15,230.16 289.25,231.93C286.94,238.4 282.06,243.5 276.86,247.79C269.99,238.9 268.7,227.08 270.12,216.25Z" style="fill:rgb(165,108,108);fill-rule:nonzero;"/>
    </g>
    <g transform="matrix(1,0,0,1,-47.9695,-71.1473)">
        <path d="M306.19,229.18C327.64,223.35 350.46,223.37 372.19,227.66C375.37,228.26 378.59,228.65 381.81,228.95L381.44,229.58C378.23,234.85 375.66,240.77 370.58,244.57C362.74,250.58 353.1,255.2 343,254.64C331.25,254.19 320.09,248.36 312.23,239.75C309.51,236.68 307.67,232.97 306.19,229.18Z" style="fill:rgb(165,108,108);fill-rule:nonzero;"/>
    </g>
    <g transform="matrix(1,0,0,1,-47.9695,-71.1473)">
        <path d="M461.01,233.16C463.11,230.59 465.43,228.2 467.91,225.99C473.55,236.6 475.23,249.24 472.85,260.99C470.25,273.62 460.5,283.63 449.31,289.36C441.28,293.25 432.74,296.03 424.18,298.5C423.15,295.82 422.28,293.08 421.84,290.24C431.96,287.21 442.42,284.29 451.27,278.31C458.63,273.17 464.17,265.02 465.03,255.96C465.74,248.23 465.43,239.84 461.01,233.16Z" style="fill:rgb(184,88,88);fill-rule:nonzero;"/>
    </g>
    <g transform="matrix(1,0,0,1,-47.9695,-71.1473)">
        <path d="M296.9,235.01C298.81,231.61 302.81,230.52 306.19,229.18C307.67,232.97 309.51,236.68 312.23,239.75C320.09,248.36 331.25,254.19 343,254.64C353.1,255.2 362.74,250.58 370.58,244.57C375.66,240.77 378.23,234.85 381.44,229.58C384.65,231.14 388.26,232.6 390.17,235.84C392.62,239.93 394.78,244.34 398.43,247.55C401.6,250.77 406.48,252.34 408.42,256.69C411.14,262.41 411.49,268.86 412.09,275.07C412.68,283.83 413.58,292.61 413,301.4C409.03,302.93 404.83,303.77 400.58,303.94C406.06,296.07 408.62,285.86 405.38,276.59C401.49,263.79 386.85,255.57 373.9,259.06C363.01,261.69 354.46,271.8 353.61,282.96C353.23,287.58 354.51,292.12 356.03,296.45C357.67,289.48 358.78,282.05 363.07,276.1C365.55,272.91 368.52,269.97 372.15,268.11C375.6,266.35 379.56,266.31 383.34,266.02C375.22,276.74 374.26,292.5 382.15,303.6C371.01,305.93 360.67,310.98 351.23,317.22C348.23,318.86 344.69,321.92 341.17,319.83C334.69,316.4 328.91,311.71 322.11,308.83C307.51,302.45 290.43,300.47 275.13,305.41C273.75,294.04 273.43,282.45 275.04,271.08C275.43,266.11 276.96,261.1 280.16,257.2C283.44,253.16 287.61,249.92 290.64,245.67C293.27,242.45 294.88,238.6 296.9,235.01M288.29,279.26C284.04,282.76 280.27,287.45 279.63,293.11C285.18,289.27 290.68,284.99 297.42,283.49C305.49,281.02 314.25,282.65 321.73,286.22C326.36,288.47 329.51,292.66 333.02,296.27C332.1,288.93 328.23,282.06 321.86,278.14C311.86,271.7 297.81,272.07 288.29,279.26Z" style="fill:rgb(241,236,236);fill-rule:nonzero;"/>
    </g>
    <g transform="matrix(1,0,0,1,-47.9695,-71.1473)">
        <path d="M217.39,263.75C214.5,252.46 216.25,240.33 221.08,229.82C223.51,231.57 225.92,233.38 228.15,235.38C224.39,243.99 223.33,253.91 226.04,262.98C228.59,270.85 234.6,277.3 241.81,281.2C249.19,285.23 257.33,287.55 265.28,290.15C265.3,293.15 265.7,296.14 265.88,299.15C255.51,296.1 244.96,292.97 235.6,287.43C227.06,282 219.98,273.69 217.39,263.75Z" style="fill:rgb(184,88,88);fill-rule:nonzero;"/>
    </g>
    <g transform="matrix(1,0,0,1,-47.9695,-71.1473)">
        <path d="M452.85,240.84C455.66,238.38 458.58,236.01 461.01,233.16C465.43,239.84 465.74,248.23 465.03,255.96C464.17,265.02 458.63,273.17 451.27,278.31C442.42,284.29 431.96,287.21 421.84,290.24C421.5,286.35 420.21,282.02 422.32,278.41C430.29,264.29 440.75,251.61 452.85,240.84Z" style="fill:rgb(255,183,183);fill-rule:nonzero;"/>
    </g>
    <g transform="matrix(1,0,0,1,-47.9695,-71.1473)">
        <path d="M424.12,250.05C431.29,244.55 438.01,238.17 446.43,234.59C436.78,244.75 426.5,254.6 419.56,266.94C419.24,263.21 418.18,259.61 417.5,255.95C419.26,253.54 421.86,251.94 424.12,250.05Z" style="fill:rgb(241,236,236);fill-rule:nonzero;"/>
    </g>
    <g transform="matrix(1,0,0,1,-47.9695,-71.1473)">
        <path d="M228.15,235.38C242.25,247.24 254.25,261.58 263.5,277.51C265.9,281.3 265.3,285.89 265.28,290.15C257.33,287.55 249.19,285.23 241.81,281.2C234.6,277.3 228.59,270.85 226.04,262.98C223.33,253.91 224.39,243.99 228.15,235.38Z" style="fill:rgb(255,183,183);fill-rule:nonzero;"/>
    </g>
    <g transform="matrix(1,0,0,1,-47.9695,-71.1473)">
        <path d="M242.58,236.57C252.97,241.11 261.47,248.93 270.24,255.96C268.76,259.23 267.56,262.62 266.61,266.09C261.82,258.76 256.56,251.73 250.54,245.37C247.83,242.48 244.99,239.71 242.58,236.57Z" style="fill:rgb(241,236,236);fill-rule:nonzero;"/>
    </g>
    <g transform="matrix(1,0,0,1,-47.9695,-71.1473)">
        <path d="M373.9,259.06C386.85,255.57 401.49,263.79 405.38,276.59C408.62,285.86 406.06,296.07 400.58,303.94C396.06,309.88 386.65,309.23 382.15,303.6C374.26,292.5 375.22,276.74 383.34,266.02C379.56,266.31 375.6,266.35 372.15,268.11C368.52,269.97 365.55,272.91 363.07,276.1C358.78,282.05 357.67,289.48 356.03,296.45C354.51,292.12 353.23,287.58 353.61,282.96C354.46,271.8 363.01,261.69 373.9,259.06Z" style="fill:rgb(41,118,162);fill-rule:nonzero;"/>
    </g>
    <g transform="matrix(1,0,0,1,-47.9695,-71.1473)">
        <path d="M288.29,279.26C297.81,272.07 311.86,271.7 321.86,278.14C328.23,282.06 332.1,288.93 333.02,296.27C329.51,292.66 326.36,288.47 321.73,286.22C314.25,282.65 305.49,281.02 297.42,283.49C290.68,284.99 285.18,289.27 279.63,293.11C280.27,287.45 284.04,282.76 288.29,279.26Z" style="fill:rgb(41,118,162);fill-rule:nonzero;"/>
    </g>
    <g transform="matrix(1,0,0,1,-47.9695,-71.1473)">
        <path d="M400.58,303.94C404.83,303.77 409.03,302.93 413,301.4C413,302.84 413.01,304.29 413.03,305.74C420.99,309.54 426.43,316.86 430.59,324.4C435.43,332.82 436.38,343.04 434.42,352.45C431.55,365.49 422.2,375.99 411.76,383.78C396.32,394.87 377.62,400.71 358.87,402.82C351.48,403.25 344.07,404.48 336.67,403.42C315.75,402.37 294.66,396.67 277.22,384.8C265.45,376.64 255.21,364.78 252.72,350.3C250.32,339.19 254.13,327.65 260.55,318.57C264.04,312.89 268.94,308.05 275.13,305.41C290.43,300.47 307.51,302.45 322.11,308.83C328.91,311.71 334.69,316.4 341.17,319.83C344.69,321.92 348.23,318.86 351.23,317.22C360.67,310.98 371.01,305.93 382.15,303.6C386.65,309.23 396.06,309.88 400.58,303.94M319.53,334.49C314.58,336.98 313.38,344.63 317.79,348.2C322.45,352.59 331.54,348.63 330.85,342C331.4,336.11 324.67,332.06 319.53,334.49M359.46,334.43C353.65,335.98 351.96,344.63 356.77,348.22C361.24,352.21 369.6,349.14 369.76,342.94C370.6,337.36 364.75,332.65 359.46,334.43M406.37,335.32C393.82,337.64 385.14,351.83 389.05,364.03C390.55,370.2 395.29,374.71 400.3,378.24C374.65,391.31 344.46,393.73 316.41,388.57C300.55,385.23 283.82,379.71 272.94,367.03C268.7,362.51 267.57,356.27 267.35,350.3C267.59,347.53 264.28,345.12 261.88,346.81C259.09,348.5 259.75,352.29 259.78,355.05C260.46,366.57 268.82,375.86 277.97,382.01C295.37,393.49 316.44,397.72 336.96,398.95C359.31,399.78 382.01,395.84 402.28,386.2C408.55,383.24 414.47,379.26 418.83,373.8C425.23,366.01 427.7,355.22 425.51,345.4C424.7,342.39 423.6,338.88 420.57,337.42C416.19,335.36 411.17,334.31 406.37,335.32Z" style="fill:rgb(255,183,183);fill-rule:nonzero;"/>
    </g>
    <g transform="matrix(1,0,0,1,-47.9695,-71.1473)">
        <path d="M572.7,303.72C586.06,299.04 600.88,299.52 614.3,303.71C622.39,306.26 630.2,311.57 633.45,319.69C637.12,328.6 635.5,338.66 632.55,347.52C630.04,355.01 623.39,361.95 615.04,361.84C605.45,361.65 595.3,360.23 586.35,364.61C592.81,364.31 599.29,363.06 605.75,364.21C614.68,365.64 624.03,368.84 629.99,376.03C636.89,384.82 638.64,397.31 634.63,407.72C630.52,418.56 622.72,427.61 613.85,434.89C604.69,441.81 594.39,447.63 583.16,450.34C575.09,451.57 566.12,451.64 559.02,447.04C549.6,440.87 550.27,425.44 558.91,418.88C566.03,413.66 575.23,413.38 583.56,411.61C586.36,410.83 589.86,409.84 590.92,406.78C592.3,402.39 585.95,402.24 583.05,401.87C571.21,401.9 558.4,402.56 548.06,395.75C546.88,386.12 540.42,377.73 532.29,372.74C530.76,370.53 530.93,367.61 530.62,365.04C530.3,351.54 533.02,337.37 541.44,326.47C549.4,316.15 560.46,308.18 572.7,303.72M584.41,310.37C579.43,311.17 574.58,312.75 570.07,315C557.68,321.37 546.25,331.57 542.32,345.36C539.61,355.74 538.19,367.49 543.62,377.28C546.29,383.7 552.27,388.07 558.6,390.46C567.81,393.75 577.72,391.1 587.15,392.89C591.79,393.58 596.79,395.52 599.16,399.85C602.25,405.77 599.77,413.66 594.21,417.2C585.53,423.14 573.99,420.73 565.06,426.02C561.54,428.24 561.33,433.01 562.18,436.66C563.52,439.95 567.49,440.72 570.57,441.53C578.26,443.12 585.96,440.08 592.84,436.89C605.76,430.64 617.58,421.15 624.2,408.18C628.4,400.41 628.49,390.07 623.24,382.78C618.64,376.65 610.77,374.57 603.59,373.32C596.55,371.92 589.45,375.26 582.45,373.5C577.9,372.42 574.25,367.41 575.79,362.76C577.22,358.41 581.72,356.25 585.7,354.74C594.51,351.39 604.09,351.77 613.33,352.44C617.07,352.81 620.73,350.69 622.35,347.31C625.46,341.17 626.63,334.03 625.87,327.2C625.07,321.13 620.39,316.33 614.92,314.03C605.37,309.93 594.65,309.13 584.41,310.37Z" style="fill:rgb(146,52,85);fill-rule:nonzero;"/>
    </g>
    <g transform="matrix(1,0,0,1,-47.9695,-71.1473)">
        <path d="M584.41,310.37C594.65,309.13 605.37,309.93 614.92,314.03C620.39,316.33 625.07,321.13 625.87,327.2C626.63,334.03 625.46,341.17 622.35,347.31C620.73,350.69 617.07,352.81 613.33,352.44C604.09,351.77 594.51,351.39 585.7,354.74C581.72,356.25 577.22,358.41 575.79,362.76C574.25,367.41 577.9,372.42 582.45,373.5C589.45,375.26 596.55,371.92 603.59,373.32C610.77,374.57 618.64,376.65 623.24,382.78C628.49,390.07 628.4,400.41 624.2,408.18C617.58,421.15 605.76,430.64 592.84,436.89C585.96,440.08 578.26,443.12 570.57,441.53C567.49,440.72 563.52,439.95 562.18,436.66C561.33,433.01 561.54,428.24 565.06,426.02C573.99,420.73 585.53,423.14 594.21,417.2C599.77,413.66 602.25,405.77 599.16,399.85C596.79,395.52 591.79,393.58 587.15,392.89C577.72,391.1 567.81,393.75 558.6,390.46C552.27,388.07 546.29,383.7 543.62,377.28C538.19,367.49 539.61,355.74 542.32,345.36C546.25,331.57 557.68,321.37 570.07,315C574.58,312.75 579.43,311.17 584.41,310.37Z" style="fill:rgb(233,153,181);fill-rule:nonzero;"/>
    </g>
    <g transform="matrix(1,0,0,1,-47.9695,-71.1473)">
        <path d="M78.15,343.17C84.48,335.18 92.87,327.9 103.28,326.36C109.87,325.78 116.93,325.79 122.87,329.1C131.27,333.57 136.43,344.15 133.39,353.41C131.07,361.77 124.05,367.3 118.35,373.34C114.22,378.08 109.3,382.91 108.51,389.49C114.24,389.18 117.83,384.22 121.14,380.17C127.21,372.02 134.01,364.05 142.86,358.82C149.2,354.89 157.57,355.38 163.92,359.02C171.39,363.26 177.99,369.39 182.01,377.04C185.79,384.17 186.31,392.53 185.45,400.43C182.6,410.39 178.08,419.8 172.99,428.79C164,439.67 153.27,450.09 139.48,454.38C123.96,459.31 107,455.45 92.87,448.17C80.98,442.16 71.51,431.82 66.26,419.6C59.36,403.97 57.78,385.69 63.46,369.44C66.69,359.87 71.99,351.12 78.15,343.17M105.44,335.59C96.41,336.64 89.9,343.78 84.49,350.45C75.43,362.29 68.86,376.78 69.35,391.95C70.14,408.91 77.24,426.48 91.6,436.36C103.24,444.09 117.6,448.59 131.61,446.6C145.38,444.22 156.27,434.27 164.82,423.81C173.33,413.54 178.21,399.74 175.51,386.41C173.44,378.34 167.22,371.98 160.22,367.82C156.78,365.74 152.32,364.6 148.55,366.55C142.4,369.74 137.47,374.82 133.14,380.13C128.77,385.4 125.17,391.51 119.41,395.43C115.61,398.16 110.57,400.04 106,398.11C101.39,396.84 98.41,391.91 99.18,387.25C100.39,379.53 105.57,373.26 110.7,367.69C115.47,362.45 121.69,358.07 124.18,351.16C126.34,346.26 123.25,340.68 119.14,337.9C115.08,335.45 110.06,335.07 105.44,335.59Z" style="fill:rgb(128,108,55);fill-rule:nonzero;"/>
    </g>
    <g transform="matrix(1,0,0,1,-47.9695,-71.1473)">
        <path d="M319.53,334.49C324.67,332.06 331.4,336.11 330.85,342C331.54,348.63 322.45,352.59 317.79,348.2C313.38,344.63 314.58,336.98 319.53,334.49Z" style="fill:rgb(146,52,85);fill-rule:nonzero;"/>
    </g>
    <g transform="matrix(1,0,0,1,-47.9695,-71.1473)">
        <path d="M359.46,334.43C364.75,332.65 370.6,337.36 369.76,342.94C369.6,349.14 361.24,352.21 356.77,348.22C351.96,344.63 353.65,335.98 359.46,334.43Z" style="fill:rgb(146,52,85);fill-rule:nonzero;"/>
    </g>
    <g transform="matrix(1,0,0,1,-47.9695,-71.1473)">
        <path d="M105.44,335.59C110.06,335.07 115.08,335.45 119.14,337.9C123.25,340.68 126.34,346.26 124.18,351.16C121.69,358.07 115.47,362.45 110.7,367.69C105.57,373.26 100.39,379.53 99.18,387.25C98.41,391.91 101.39,396.84 106,398.11C110.57,400.04 115.61,398.16 119.41,395.43C125.17,391.51 128.77,385.4 133.14,380.13C137.47,374.82 142.4,369.74 148.55,366.55C152.32,364.6 156.78,365.74 160.22,367.82C167.22,371.98 173.44,378.34 175.51,386.41C178.21,399.74 173.33,413.54 164.82,423.81C156.27,434.27 145.38,444.22 131.61,446.6C117.6,448.59 103.24,444.09 91.6,436.36C77.24,426.48 70.14,408.91 69.35,391.95C68.86,376.78 75.43,362.29 84.49,350.45C89.9,343.78 96.41,336.64 105.44,335.59Z" style="fill:rgb(233,212,153);fill-rule:nonzero;"/>
    </g>
    <g transform="matrix(1,0,0,1,-47.9695,-71.1473)">
        <path d="M406.37,335.32C411.17,334.31 416.19,335.36 420.57,337.42C423.6,338.88 424.7,342.39 425.51,345.4C427.7,355.22 425.23,366.01 418.83,373.8C414.47,379.26 408.55,383.24 402.28,386.2C382.01,395.84 359.31,399.78 336.96,398.95C316.44,397.72 295.37,393.49 277.97,382.01C268.82,375.86 260.46,366.57 259.78,355.05C259.75,352.29 259.09,348.5 261.88,346.81C264.28,345.12 267.59,347.53 267.35,350.3C267.57,356.27 268.7,362.51 272.94,367.03C283.82,379.71 300.55,385.23 316.41,388.57C344.46,393.73 374.65,391.31 400.3,378.24C395.29,374.71 390.55,370.2 389.05,364.03C385.14,351.83 393.82,337.64 406.37,335.32M406.44,343.34C398.76,345.62 393.97,354.74 396.63,362.33C398.39,367.48 403.18,372.06 408.85,372.06C412.75,370.42 414.9,366.21 416.6,362.54C418.78,356.88 420.25,349.76 416.55,344.43C413.45,342.95 409.79,342.41 406.44,343.34Z" style="fill:rgb(146,52,85);fill-rule:nonzero;"/>
    </g>
    <g transform="matrix(1,0,0,1,-47.9695,-71.1473)">
        <path d="M406.44,343.34C409.79,342.41 413.45,342.95 416.55,344.43C420.25,349.76 418.78,356.88 416.6,362.54C414.9,366.21 412.75,370.42 408.85,372.06C403.18,372.06 398.39,367.48 396.63,362.33C393.97,354.74 398.76,345.62 406.44,343.34Z" style="fill:rgb(233,153,181);fill-rule:nonzero;"/>
    </g>
    <g transform="matrix(1,0,0,1,-47.9695,-71.1473)">
        <path d="M468.27,370.34C480.51,365.43 493.97,362.9 507.11,364.95C515.81,366.24 524.65,368.2 532.29,372.74C540.42,377.73 546.88,386.12 548.06,395.75C549.49,407.58 549.67,420.52 542.99,430.94C538.32,438.86 530.19,443.62 522.32,447.83C528.4,453.84 534.86,460.22 537.3,468.68C539.48,476.36 535.71,484.91 529.09,489.13C524.1,492.4 517.6,492.66 511.98,491.14C502.91,487.77 496.19,480.26 490.25,472.92C491.16,480.07 491.8,487.84 488.45,494.49C484.93,501.64 476.74,505.64 468.97,505.48C463.97,505.32 459.43,502.45 456.52,498.48C453.04,493.74 451.26,488.04 449.54,482.49C444.86,466.82 442.8,450.54 440.39,434.4C439.64,427.81 438.56,421.24 438.52,414.59C438.92,405.73 438.7,396.25 443.3,388.34C449.04,379.46 458.59,373.98 468.27,370.34M474.9,377.95C465.92,381.3 456.05,385.33 451,394.01C446.22,405.27 448.47,417.78 449.44,429.56C451.78,447.66 454.12,465.92 459.71,483.36C461.31,487.9 463.02,493.12 467.49,495.61C472.98,497.21 479.5,493.46 480.87,487.87C482.24,483.03 482.12,477.94 481.93,472.97C481.58,465.69 479.15,458.46 480.49,451.16C485.4,456.02 489.58,461.61 495,465.96C501.5,471.09 506.39,478.37 514.13,481.82C519.25,484.49 526.55,481.53 527.94,475.82C528.94,472.21 527.45,468.5 525.44,465.54C520.32,457.94 513.05,452.23 506.48,445.97C515.58,439.54 527.31,436.47 534.13,427.14C539.73,419.7 539.55,409.87 538.92,401.02C538.19,391.78 532.76,382.69 523.98,379.08C508.55,372.63 490.59,372 474.9,377.95Z" style="fill:rgb(128,108,55);fill-rule:nonzero;"/>
    </g>
    <g transform="matrix(1,0,0,1,-47.9695,-71.1473)">
        <path d="M474.9,377.95C490.59,372 508.55,372.63 523.98,379.08C532.76,382.69 538.19,391.78 538.92,401.02C539.55,409.87 539.73,419.7 534.13,427.14C527.31,436.47 515.58,439.54 506.48,445.97C513.05,452.23 520.32,457.94 525.44,465.54C527.45,468.5 528.94,472.21 527.94,475.82C526.55,481.53 519.25,484.49 514.13,481.82C506.39,478.37 501.5,471.09 495,465.96C489.58,461.61 485.4,456.02 480.49,451.16C479.15,458.46 481.58,465.69 481.93,472.97C482.12,477.94 482.24,483.03 480.87,487.87C479.5,493.46 472.98,497.21 467.49,495.61C463.02,493.12 461.31,487.9 459.71,483.36C454.12,465.92 451.78,447.66 449.44,429.56C448.47,417.78 446.22,405.27 451,394.01C456.05,385.33 465.92,381.3 474.9,377.95M466.9,418.83C468.45,425.17 470.29,431.45 472.25,437.67C472.92,439.24 473.34,441.3 475.04,442.11C481.4,440.89 487.2,437.28 491.69,432.69C494.99,429.31 494.95,422.87 490.56,420.44C485.99,418.29 480.86,417.74 475.89,417.18C472.79,416.8 469.77,417.75 466.9,418.83Z" style="fill:rgb(233,212,153);fill-rule:nonzero;"/>
    </g>
    <g transform="matrix(1,0,0,1,-47.9695,-71.1473)">
        <path d="M185.45,400.43C189.03,393.22 195.51,386.34 204.01,385.75C215.94,384.54 227.44,389.2 238.2,393.8C253.04,400.28 265.31,412.13 272.49,426.62C273.73,429.16 274.75,431.82 275.3,434.6C274.09,443.91 275.68,453.43 273.45,462.62C271.69,470.21 267.77,477.05 263.88,483.72C255.4,494.55 242.24,500.55 228.96,503C214.89,506.03 200.24,504.79 186.3,501.67C177.61,499.72 168,497.02 162.6,489.37C157.64,482.25 160.09,473.19 161.47,465.34C164.4,452.91 168.38,440.69 172.99,428.79C178.08,419.8 182.6,410.39 185.45,400.43M203.41,395.35C198.55,396.65 195.77,401.29 193.24,405.26C187.33,415.72 183.33,427.12 179.36,438.42C175.4,450.23 171.21,462.07 169.35,474.43C169.04,477.05 168.52,479.87 169.53,482.41C171.59,486.77 176.28,488.97 180.62,490.45C193.54,494.61 207.32,495.94 220.84,494.84C231.16,493.37 241.8,490.72 250.13,484.14C260.31,475.97 265.63,463.09 267.44,450.44C269.21,438.05 262.85,426.17 254.76,417.24C245.64,406.56 232.39,400.66 219.2,396.74C214.11,395.25 208.67,394.23 203.41,395.35Z" style="fill:rgb(146,52,85);fill-rule:nonzero;"/>
    </g>
    <g transform="matrix(1,0,0,1,-47.9695,-71.1473)">
        <path d="M203.41,395.35C208.67,394.23 214.11,395.25 219.2,396.74C232.39,400.66 245.64,406.56 254.76,417.24C262.85,426.17 269.21,438.05 267.44,450.44C265.63,463.09 260.31,475.97 250.13,484.14C241.8,490.72 231.16,493.37 220.84,494.84C207.32,495.94 193.54,494.61 180.62,490.45C176.28,488.97 171.59,486.77 169.53,482.41C168.52,479.87 169.04,477.05 169.35,474.43C171.21,462.07 175.4,450.23 179.36,438.42C183.33,427.12 187.33,415.72 193.24,405.26C195.77,401.29 198.55,396.65 203.41,395.35M204.35,437.14C200.9,439.7 199.49,444.01 197.83,447.8C195.88,453.22 193.78,458.86 194,464.7C196.63,467.47 200.86,467.27 204.22,466.19C209.25,464.65 214.81,462.14 216.96,456.96C219.34,451.71 216.38,445.95 213.18,441.78C210.97,439.33 207.91,436.5 204.35,437.14Z" style="fill:rgb(233,153,181);fill-rule:nonzero;"/>
    </g>
    <g transform="matrix(1,0,0,1,-47.9695,-71.1473)">
        <path d="M382.56,409.6C394.41,406.12 406.55,402.42 419.05,403.14C426.87,403.26 435.24,407.12 438.52,414.59C438.56,421.24 439.64,427.81 440.39,434.4C438.34,440.25 433.4,444.39 428.61,448.01C432.3,449.85 436.05,452.28 437.67,456.27C440.51,462.87 438.23,470.81 432.66,475.25C437.64,477.14 442.5,480.55 444.1,485.9C446.29,493.77 444.17,502.62 438.77,508.74C432.28,516.33 422.82,520.3 413.73,523.82C404.27,527.41 394.12,529.87 383.95,529.15C376.78,528.52 371.21,522.87 368.32,516.63C364.98,509.35 363.53,501.38 362.77,493.46C368.4,486.76 369.85,477.43 369.34,468.95C367.94,460.29 365.51,451.61 361.04,444C359.89,440.1 361.2,435.96 361.23,431.97C361.83,427.25 361.43,421.73 365.05,418.08C369.76,413.38 376.42,411.61 382.56,409.6M384.05,419C380.2,420.3 376.14,421.36 372.81,423.78C371.66,424.49 371.31,425.86 371.14,427.12C369.83,437.02 369.58,447.04 370.04,457.01C369.91,463.48 369.76,469.98 370.53,476.43C371.75,488.21 371.83,500.44 376.37,511.57C378.08,516.01 381.83,520.41 387.04,520.05C399.77,519.66 412.05,515.11 423.22,509.25C429.95,505.77 436.09,499.24 435.68,491.19C435.13,485.58 429.11,482.93 424.35,481.62C414.59,478.97 404.42,480.59 394.5,479.54C399.9,476.64 406.15,476.11 411.8,473.85C416.97,471.76 422.68,470.61 427.25,467.27C429.94,465.42 428.96,461.8 429.22,459.04C419.6,453.26 408.05,455.64 397.45,454.69C404.27,451.48 411.5,449.06 417.79,444.8C423.05,441.25 429.27,437.84 431.73,431.64C433.97,426.25 431.99,419.95 428.09,415.88C424.56,412.82 419.59,412.12 415.06,412.21C404.44,412.85 394.17,415.91 384.05,419Z" style="fill:rgb(146,52,85);fill-rule:nonzero;"/>
    </g>
    <g transform="matrix(1,0,0,1,-47.9695,-71.1473)">
        <path d="M289.02,412.94C297.76,408.3 308.23,410.1 317.37,412.51C328.01,415.34 338.55,419.72 346.79,427.2C352.33,432.07 356.74,438.05 361.04,444C365.51,451.61 367.94,460.29 369.34,468.95C369.85,477.43 368.4,486.76 362.77,493.46C353.06,506.74 338.46,515.28 323.55,521.55C309.21,527.6 292.77,529.57 277.68,525.27C269.73,523.14 263.03,516.25 262.37,507.86C261.84,499.81 262.1,491.61 263.88,483.72C267.77,477.05 271.69,470.21 273.45,462.62C275.68,453.43 274.09,443.91 275.3,434.6C278.54,426.75 281.57,417.82 289.02,412.94M295.38,420.43C291.51,421.61 289.79,425.72 287.99,428.97C283.1,439.68 280.42,451.22 277.69,462.62C274.5,477.49 270.49,492.6 272.13,507.94C272.63,513.42 278.33,515.94 283.04,516.94C295.86,519.59 309.4,517.58 321.29,512.25C333.12,507 345,500.51 353.11,490.13C360.86,480.07 361.06,465.51 355.57,454.37C349.41,441.96 339.65,430.76 326.54,425.55C316.74,421.73 305.97,418.19 295.38,420.43Z" style="fill:rgb(128,108,55);fill-rule:nonzero;"/>
    </g>
    <g transform="matrix(1,0,0,1,-47.9695,-71.1473)">
        <path d="M384.05,419C394.17,415.91 404.44,412.85 415.06,412.21C419.59,412.12 424.56,412.82 428.09,415.88C431.99,419.95 433.97,426.25 431.73,431.64C429.27,437.84 423.05,441.25 417.79,444.8C411.5,449.06 404.27,451.48 397.45,454.69C408.05,455.64 419.6,453.26 429.22,459.04C428.96,461.8 429.94,465.42 427.25,467.27C422.68,470.61 416.97,471.76 411.8,473.85C406.15,476.11 399.9,476.64 394.5,479.54C404.42,480.59 414.59,478.97 424.35,481.62C429.11,482.93 435.13,485.58 435.68,491.19C436.09,499.24 429.95,505.77 423.22,509.25C412.05,515.11 399.77,519.66 387.04,520.05C381.83,520.41 378.08,516.01 376.37,511.57C371.83,500.44 371.75,488.21 370.53,476.43C369.76,469.98 369.91,463.48 370.04,457.01C369.58,447.04 369.83,437.02 371.14,427.12C371.31,425.86 371.66,424.49 372.81,423.78C376.14,421.36 380.2,420.3 384.05,419Z" style="fill:rgb(233,153,181);fill-rule:nonzero;"/>
    </g>
    <g transform="matrix(1,0,0,1,-47.9695,-71.1473)">
        <path d="M466.9,418.83C469.77,417.75 472.79,416.8 475.89,417.18C480.86,417.74 485.99,418.29 490.56,420.44C494.95,422.87 494.99,429.31 491.69,432.69C487.2,437.28 481.4,440.89 475.04,442.11C473.34,441.3 472.92,439.24 472.25,437.67C470.29,431.45 468.45,425.17 466.9,418.83M477.02,425.12C477.52,427.13 478.03,429.14 478.55,431.16C480.33,429.85 482.1,428.54 483.83,427.17C481.56,426.44 479.29,425.77 477.02,425.12Z" style="fill:rgb(128,108,55);fill-rule:nonzero;"/>
    </g>
    <g transform="matrix(1,0,0,1,-47.9695,-71.1473)">
        <path d="M295.38,420.43C305.97,418.19 316.74,421.73 326.54,425.55C339.65,430.76 349.41,441.96 355.57,454.37C361.06,465.51 360.86,480.07 353.11,490.13C345,500.51 333.12,507 321.29,512.25C309.4,517.58 295.86,519.59 283.04,516.94C278.33,515.94 272.63,513.42 272.13,507.94C270.49,492.6 274.5,477.49 277.69,462.62C280.42,451.22 283.1,439.68 287.99,428.97C289.79,425.72 291.51,421.61 295.38,420.43M298.42,464.28C296.03,465.06 295.46,467.78 294.9,469.91C293.57,476.23 292.5,482.62 291.97,489.06C291.96,490.65 291.62,492.79 293.34,493.69C297.09,496.29 301.76,494.24 305.3,492.29C310.16,489.58 315,485.03 315.01,479.07C314.52,474.53 311.56,470.7 308.39,467.61C305.81,465.13 302.08,462.95 298.42,464.28Z" style="fill:rgb(233,212,153);fill-rule:nonzero;"/>
    </g>
    <g transform="matrix(1,0,0,1,-47.9695,-71.1473)">
        <path d="M204.35,437.14C207.91,436.5 210.97,439.33 213.18,441.78C216.38,445.95 219.34,451.71 216.96,456.96C214.81,462.14 209.25,464.65 204.22,466.19C200.86,467.27 196.63,467.47 194,464.7C193.78,458.86 195.88,453.22 197.83,447.8C199.49,444.01 200.9,439.7 204.35,437.14M206.36,448.37C204.97,451.32 203.81,454.38 202.36,457.3C204.3,456.17 206.42,455.26 208.08,453.71C208.59,451.72 207.27,449.99 206.36,448.37Z" style="fill:rgb(146,52,85);fill-rule:nonzero;"/>
    </g>
    <g transform="matrix(1,0,0,1,-47.9695,-71.1473)">
        <path d="M298.42,464.28C302.08,462.95 305.81,465.13 308.39,467.61C311.56,470.7 314.52,474.53 315.01,479.07C315,485.03 310.16,489.58 305.3,492.29C301.76,494.24 297.09,496.29 293.34,493.69C291.62,492.79 291.96,490.65 291.97,489.06C292.5,482.62 293.57,476.23 294.9,469.91C295.46,467.78 296.03,465.06 298.42,464.28M301.96,474.55C301.14,477.82 300.64,481.17 300.22,484.52C302.04,482.91 305.1,481.84 305.28,479.07C304.57,477.31 303.23,475.91 301.96,474.55Z" style="fill:rgb(128,108,55);fill-rule:nonzero;"/>
    </g>
</svg>
